{
	"asset":{
		"generator":"Khronos glTF Blender I/O v4.0.44",
		"version":"2.0"
	},
	"scene":0,
	"scenes":[
		{
			"name":"Scene",
			"nodes":[
				0
			]
		}
	],
	"nodes":[
		{
			"mesh":0,
			"name":"Plane",
			"scale":[
				2.8571436405181885,
				6.439609050750732,
				5.480342864990234
			],
			"translation":[
				0,
				0,
				4.5910162925720215
			]
		}
	],
	"meshes":[
		{
			"name":"Plane.001",
			"primitives":[
				{
					"attributes":{
						"POSITION":0,
						"NORMAL":1,
						"TEXCOORD_0":2
					},
					"indices":3
				}
			]
		}
	],
	"accessors":[
		{
			"bufferView":0,
			"componentType":5126,
			"count":508,
			"max":[
				1.6492853164672852,
				0.619389533996582,
				1
			],
			"min":[
				-1.6492853164672852,
				-0.030280184000730515,
				-1
			],
			"type":"VEC3"
		},
		{
			"bufferView":1,
			"componentType":5126,
			"count":508,
			"type":"VEC3"
		},
		{
			"bufferView":2,
			"componentType":5126,
			"count":508,
			"type":"VEC2"
		},
		{
			"bufferView":3,
			"componentType":5123,
			"count":774,
			"type":"SCALAR"
		}
	],
	"bufferViews":[
		{
			"buffer":0,
			"byteLength":6096,
			"byteOffset":0,
			"target":34962
		},
		{
			"buffer":0,
			"byteLength":6096,
			"byteOffset":6096,
			"target":34962
		},
		{
			"buffer":0,
			"byteLength":4064,
			"byteOffset":12192,
			"target":34962
		},
		{
			"buffer":0,
			"byteLength":1548,
			"byteOffset":16256,
			"target":34963
		}
	],
	"buffers":[
		{
			"byteLength":17804,
			"uri":"room2.bin"
		}
	]
}
