{
	"asset":{
		"generator":"Khronos glTF Blender I/O v4.0.44",
		"version":"2.0"
	},
	"scene":0,
	"scenes":[
		{
			"name":"Scene",
			"nodes":[
				0
			]
		}
	],
	"nodes":[
		{
			"mesh":0,
			"name":"Laptop",
			"rotation":[
				0,
				0.46718114614486694,
				0,
				0.884161651134491
			],
			"scale":[
				0.15022265911102295,
				0.01705019734799862,
				0.24482987821102142
			],
			"translation":[
				2.1759214401245117,
				0.8911163210868835,
				2.3943474292755127
			]
		}
	],
	"materials":[
		{
			"doubleSided":true,
			"name":"Material.002",
			"pbrMetallicRoughness":{
				"baseColorFactor":[
					0.3807101845741272,
					0.01748230680823326,
					0.054159015417099,
					1
				],
				"metallicFactor":0,
				"roughnessFactor":0.5
			}
		},
		{
			"doubleSided":true,
			"name":"Material.009",
			"pbrMetallicRoughness":{
				"baseColorFactor":[
					0.005155434366315603,
					0.005155434366315603,
					0.005155434366315603,
					1
				],
				"metallicFactor":0,
				"roughnessFactor":0.5
			}
		}
	],
	"meshes":[
		{
			"name":"Cube.090",
			"primitives":[
				{
					"attributes":{
						"POSITION":0,
						"NORMAL":1,
						"TEXCOORD_0":2
					},
					"indices":3,
					"material":0
				},
				{
					"attributes":{
						"POSITION":4,
						"NORMAL":5,
						"TEXCOORD_0":6
					},
					"indices":7,
					"material":1
				}
			]
		}
	],
	"accessors":[
		{
			"bufferView":0,
			"componentType":5126,
			"count":987,
			"max":[
				1.7214586734771729,
				17.182170867919922,
				1
			],
			"min":[
				-1,
				-1,
				-1.001785397529602
			],
			"type":"VEC3"
		},
		{
			"bufferView":1,
			"componentType":5126,
			"count":987,
			"type":"VEC3"
		},
		{
			"bufferView":2,
			"componentType":5126,
			"count":987,
			"type":"VEC2"
		},
		{
			"bufferView":3,
			"componentType":5123,
			"count":2016,
			"type":"SCALAR"
		},
		{
			"bufferView":4,
			"componentType":5126,
			"count":24,
			"max":[
				1.5976964235305786,
				15.826482772827148,
				0.9017472267150879
			],
			"min":[
				1.0082666873931885,
				2.1766042709350586,
				-0.8950513601303101
			],
			"type":"VEC3"
		},
		{
			"bufferView":5,
			"componentType":5126,
			"count":24,
			"type":"VEC3"
		},
		{
			"bufferView":6,
			"componentType":5126,
			"count":24,
			"type":"VEC2"
		},
		{
			"bufferView":7,
			"componentType":5123,
			"count":36,
			"type":"SCALAR"
		}
	],
	"bufferViews":[
		{
			"buffer":0,
			"byteLength":11844,
			"byteOffset":0,
			"target":34962
		},
		{
			"buffer":0,
			"byteLength":11844,
			"byteOffset":11844,
			"target":34962
		},
		{
			"buffer":0,
			"byteLength":7896,
			"byteOffset":23688,
			"target":34962
		},
		{
			"buffer":0,
			"byteLength":4032,
			"byteOffset":31584,
			"target":34963
		},
		{
			"buffer":0,
			"byteLength":288,
			"byteOffset":35616,
			"target":34962
		},
		{
			"buffer":0,
			"byteLength":288,
			"byteOffset":35904,
			"target":34962
		},
		{
			"buffer":0,
			"byteLength":192,
			"byteOffset":36192,
			"target":34962
		},
		{
			"buffer":0,
			"byteLength":72,
			"byteOffset":36384,
			"target":34963
		}
	],
	"buffers":[
		{
			"byteLength":36456,
			"uri":"laptop.bin"
		}
	]
}
