{
	"asset":{
		"generator":"Khronos glTF Blender I/O v4.0.44",
		"version":"2.0"
	},
	"scene":0,
	"scenes":[
		{
			"name":"Scene",
			"nodes":[
				0
			]
		}
	],
	"nodes":[
		{
			"mesh":0,
			"name":"Photos",
			"rotation":[
				0.5456521511077881,
				0.449737548828125,
				-0.5456520318984985,
				0.449737548828125
			],
			"scale":[
				0.0022600076626986265,
				0.10441979765892029,
				0.0679413378238678
			],
			"translation":[
				-1.1313236951828003,
				1.3530129194259644,
				0.1519266963005066
			]
		}
	],
	"meshes":[
		{
			"name":"Cube.076",
			"primitives":[
				{
					"attributes":{
						"POSITION":0,
						"NORMAL":1,
						"TEXCOORD_0":2
					},
					"indices":3
				}
			]
		}
	],
	"accessors":[
		{
			"bufferView":0,
			"componentType":5126,
			"count":168,
			"max":[
				1.0367671251296997,
				1,
				5.7475996017456055
			],
			"min":[
				-3.424248218536377,
				-8.053366661071777,
				-5.658660411834717
			],
			"type":"VEC3"
		},
		{
			"bufferView":1,
			"componentType":5126,
			"count":168,
			"type":"VEC3"
		},
		{
			"bufferView":2,
			"componentType":5126,
			"count":168,
			"type":"VEC2"
		},
		{
			"bufferView":3,
			"componentType":5123,
			"count":252,
			"type":"SCALAR"
		}
	],
	"bufferViews":[
		{
			"buffer":0,
			"byteLength":2016,
			"byteOffset":0,
			"target":34962
		},
		{
			"buffer":0,
			"byteLength":2016,
			"byteOffset":2016,
			"target":34962
		},
		{
			"buffer":0,
			"byteLength":1344,
			"byteOffset":4032,
			"target":34962
		},
		{
			"buffer":0,
			"byteLength":504,
			"byteOffset":5376,
			"target":34963
		}
	],
	"buffers":[
		{
			"byteLength":5880,
			"uri":"photos.bin"
		}
	]
}
