{
	"asset":{
		"generator":"Khronos glTF Blender I/O v4.0.44",
		"version":"2.0"
	},
	"scene":0,
	"scenes":[
		{
			"name":"Scene",
			"nodes":[
				0
			]
		}
	],
	"nodes":[
		{
			"mesh":0,
			"name":"Room",
			"scale":[
				70.20587921142578,
				12.914435386657715,
				70.20587921142578
			],
			"translation":[
				-0.09325860440731049,
				-0.3228608965873718,
				2.376255989074707
			]
		}
	],
	"materials":[
		{
			"doubleSided":true,
			"name":"Material.007",
			"pbrMetallicRoughness":{
				"baseColorFactor":[
					0.3807101845741272,
					0.01748230680823326,
					0.054159015417099,
					1
				],
				"metallicFactor":0,
				"roughnessFactor":0.5
			}
		},
		{
			"doubleSided":true,
			"name":"walls",
			"pbrMetallicRoughness":{
				"baseColorFactor":[
					0.32343950867652893,
					0.4478066861629486,
					0.5221315622329712,
					1
				],
				"metallicFactor":0,
				"roughnessFactor":0.5
			}
		},
		{
			"doubleSided":true,
			"name":"wood",
			"pbrMetallicRoughness":{
				"baseColorFactor":[
					0.4070529639720917,
					0.19332057237625122,
					0.08053885400295258,
					1
				],
				"metallicFactor":0,
				"roughnessFactor":0.5
			}
		},
		{
			"doubleSided":true,
			"name":"Material.001",
			"pbrMetallicRoughness":{
				"baseColorFactor":[
					0.800000011920929,
					0.800000011920929,
					0.800000011920929,
					1
				],
				"metallicFactor":0,
				"roughnessFactor":0.5
			}
		},
		{
			"doubleSided":true,
			"name":"Material.003",
			"pbrMetallicRoughness":{
				"baseColorFactor":[
					0.14553654193878174,
					0.13257397711277008,
					0.8001416921615601,
					1
				],
				"metallicFactor":0,
				"roughnessFactor":0.5
			}
		},
		{
			"doubleSided":true,
			"name":"Material.005",
			"pbrMetallicRoughness":{
				"baseColorFactor":[
					0.6863937377929688,
					0.8010406494140625,
					0.0840194821357727,
					1
				],
				"metallicFactor":0,
				"roughnessFactor":0.5
			}
		},
		{
			"doubleSided":true,
			"name":"Material.008",
			"pbrMetallicRoughness":{
				"baseColorFactor":[
					0.4663849174976349,
					0.2135164886713028,
					0.8002041578292847,
					1
				],
				"metallicFactor":0,
				"roughnessFactor":0.5
			}
		},
		{
			"doubleSided":true,
			"name":"metal",
			"pbrMetallicRoughness":{
				"baseColorFactor":[
					0.43434619903564453,
					0.43434619903564453,
					0.43434619903564453,
					1
				],
				"metallicFactor":0,
				"roughnessFactor":0.5
			}
		},
		{
			"doubleSided":true,
			"name":"Material.006",
			"pbrMetallicRoughness":{
				"baseColorFactor":[
					0.16743220388889313,
					0.16743220388889313,
					0.16743220388889313,
					1
				],
				"metallicFactor":0,
				"roughnessFactor":0.5
			}
		},
		{
			"doubleSided":true,
			"name":"Material.012",
			"pbrMetallicRoughness":{
				"baseColorFactor":[
					0.800000011920929,
					0.800000011920929,
					0.800000011920929,
					1
				],
				"metallicFactor":0,
				"roughnessFactor":0.5
			}
		}
	],
	"meshes":[
		{
			"name":"Cylinder.020",
			"primitives":[
				{
					"attributes":{
						"POSITION":0,
						"NORMAL":1,
						"TEXCOORD_0":2
					},
					"indices":3,
					"material":0
				},
				{
					"attributes":{
						"POSITION":4,
						"NORMAL":5,
						"TEXCOORD_0":6
					},
					"indices":7,
					"material":1
				},
				{
					"attributes":{
						"POSITION":8,
						"NORMAL":9,
						"TEXCOORD_0":10
					},
					"indices":11,
					"material":2
				},
				{
					"attributes":{
						"POSITION":12,
						"NORMAL":13,
						"TEXCOORD_0":14
					},
					"indices":15,
					"material":3
				},
				{
					"attributes":{
						"POSITION":16,
						"NORMAL":17,
						"TEXCOORD_0":18
					},
					"indices":19,
					"material":4
				},
				{
					"attributes":{
						"POSITION":20,
						"NORMAL":21,
						"TEXCOORD_0":22
					},
					"indices":23,
					"material":5
				},
				{
					"attributes":{
						"POSITION":24,
						"NORMAL":25,
						"TEXCOORD_0":26
					},
					"indices":27,
					"material":6
				},
				{
					"attributes":{
						"POSITION":28,
						"NORMAL":29,
						"TEXCOORD_0":30
					},
					"indices":31,
					"material":7
				},
				{
					"attributes":{
						"POSITION":32,
						"NORMAL":33,
						"TEXCOORD_0":34
					},
					"indices":35,
					"material":8
				},
				{
					"attributes":{
						"POSITION":36,
						"NORMAL":37,
						"TEXCOORD_0":38
					},
					"indices":39,
					"material":9
				}
			]
		}
	],
	"accessors":[
		{
			"bufferView":0,
			"componentType":5126,
			"count":135,
			"max":[
				0.03374909609556198,
				0.15785439312458038,
				0.019999999552965164
			],
			"min":[
				-0.019999999552965164,
				0.02500000037252903,
				-0.029843920841813087
			],
			"type":"VEC3"
		},
		{
			"bufferView":1,
			"componentType":5126,
			"count":135,
			"type":"VEC3"
		},
		{
			"bufferView":2,
			"componentType":5126,
			"count":135,
			"type":"VEC2"
		},
		{
			"bufferView":3,
			"componentType":5123,
			"count":324,
			"type":"SCALAR"
		},
		{
			"bufferView":4,
			"componentType":5126,
			"count":160,
			"max":[
				0.042635444551706314,
				0.35903680324554443,
				0.06585978716611862
			],
			"min":[
				-0.03997872769832611,
				0.025000005960464478,
				-0.03598354011774063
			],
			"type":"VEC3"
		},
		{
			"bufferView":5,
			"componentType":5126,
			"count":160,
			"type":"VEC3"
		},
		{
			"bufferView":6,
			"componentType":5126,
			"count":160,
			"type":"VEC2"
		},
		{
			"bufferView":7,
			"componentType":5123,
			"count":288,
			"type":"SCALAR"
		},
		{
			"bufferView":8,
			"componentType":5126,
			"count":2019,
			"max":[
				0.05118173360824585,
				0.2892117500305176,
				0.06829113513231277
			],
			"min":[
				-0.04852502793073654,
				0.025000005960464478,
				-0.28780442476272583
			],
			"type":"VEC3"
		},
		{
			"bufferView":9,
			"componentType":5126,
			"count":2019,
			"type":"VEC3"
		},
		{
			"bufferView":10,
			"componentType":5126,
			"count":2019,
			"type":"VEC2"
		},
		{
			"bufferView":11,
			"componentType":5123,
			"count":3390,
			"type":"SCALAR"
		},
		{
			"bufferView":12,
			"componentType":5126,
			"count":134,
			"max":[
				0.008935555815696716,
				0.1934226155281067,
				-0.03065856173634529
			],
			"min":[
				-0.0062788501381874084,
				0.025119632482528687,
				-0.037035372108221054
			],
			"type":"VEC3"
		},
		{
			"bufferView":13,
			"componentType":5126,
			"count":134,
			"type":"VEC3"
		},
		{
			"bufferView":14,
			"componentType":5126,
			"count":134,
			"type":"VEC2"
		},
		{
			"bufferView":15,
			"componentType":5123,
			"count":228,
			"type":"SCALAR"
		},
		{
			"bufferView":16,
			"componentType":5126,
			"count":1308,
			"max":[
				0.027328237891197205,
				0.08588634431362152,
				-0.019970662891864777
			],
			"min":[
				-0.024665996432304382,
				0.028514310717582703,
				-0.027850132435560226
			],
			"type":"VEC3"
		},
		{
			"bufferView":17,
			"componentType":5126,
			"count":1308,
			"type":"VEC3"
		},
		{
			"bufferView":18,
			"componentType":5126,
			"count":1308,
			"type":"VEC2"
		},
		{
			"bufferView":19,
			"componentType":5123,
			"count":1980,
			"type":"SCALAR"
		},
		{
			"bufferView":20,
			"componentType":5126,
			"count":1308,
			"max":[
				0.016701431944966316,
				0.0948382169008255,
				-0.020067652687430382
			],
			"min":[
				-0.02910645864903927,
				0.024796929210424423,
				-0.03167084977030754
			],
			"type":"VEC3"
		},
		{
			"bufferView":21,
			"componentType":5126,
			"count":1308,
			"type":"VEC3"
		},
		{
			"bufferView":22,
			"componentType":5126,
			"count":1308,
			"type":"VEC2"
		},
		{
			"bufferView":23,
			"componentType":5123,
			"count":3216,
			"type":"SCALAR"
		},
		{
			"bufferView":24,
			"componentType":5126,
			"count":239,
			"max":[
				0.039653439074754715,
				0.1614087074995041,
				-0.0027001649141311646
			],
			"min":[
				0.01698959618806839,
				0.028514310717582703,
				-0.029310565441846848
			],
			"type":"VEC3"
		},
		{
			"bufferView":25,
			"componentType":5126,
			"count":239,
			"type":"VEC3"
		},
		{
			"bufferView":26,
			"componentType":5126,
			"count":239,
			"type":"VEC2"
		},
		{
			"bufferView":27,
			"componentType":5123,
			"count":432,
			"type":"SCALAR"
		},
		{
			"bufferView":28,
			"componentType":5126,
			"count":1629,
			"max":[
				0.03910532221198082,
				0.10793226957321167,
				0.007737022824585438
			],
			"min":[
				-0.02980056032538414,
				0.024745158851146698,
				-0.014916936866939068
			],
			"type":"VEC3"
		},
		{
			"bufferView":29,
			"componentType":5126,
			"count":1629,
			"type":"VEC3"
		},
		{
			"bufferView":30,
			"componentType":5126,
			"count":1629,
			"type":"VEC2"
		},
		{
			"bufferView":31,
			"componentType":5123,
			"count":5292,
			"type":"SCALAR"
		},
		{
			"bufferView":32,
			"componentType":5126,
			"count":230,
			"max":[
				0.03969472274184227,
				0.16621717810630798,
				0.005772459786385298
			],
			"min":[
				0.018740948289632797,
				0.06528569757938385,
				-0.0083857960999012
			],
			"type":"VEC3"
		},
		{
			"bufferView":33,
			"componentType":5126,
			"count":230,
			"type":"VEC3"
		},
		{
			"bufferView":34,
			"componentType":5126,
			"count":230,
			"type":"VEC2"
		},
		{
			"bufferView":35,
			"componentType":5123,
			"count":1020,
			"type":"SCALAR"
		},
		{
			"bufferView":36,
			"componentType":5126,
			"count":206,
			"max":[
				0.029560381546616554,
				0.057521749287843704,
				-0.01988545060157776
			],
			"min":[
				0.011043412610888481,
				0.02500000223517418,
				-0.03150840848684311
			],
			"type":"VEC3"
		},
		{
			"bufferView":37,
			"componentType":5126,
			"count":206,
			"type":"VEC3"
		},
		{
			"bufferView":38,
			"componentType":5126,
			"count":206,
			"type":"VEC2"
		},
		{
			"bufferView":39,
			"componentType":5123,
			"count":276,
			"type":"SCALAR"
		}
	],
	"bufferViews":[
		{
			"buffer":0,
			"byteLength":1620,
			"byteOffset":0,
			"target":34962
		},
		{
			"buffer":0,
			"byteLength":1620,
			"byteOffset":1620,
			"target":34962
		},
		{
			"buffer":0,
			"byteLength":1080,
			"byteOffset":3240,
			"target":34962
		},
		{
			"buffer":0,
			"byteLength":648,
			"byteOffset":4320,
			"target":34963
		},
		{
			"buffer":0,
			"byteLength":1920,
			"byteOffset":4968,
			"target":34962
		},
		{
			"buffer":0,
			"byteLength":1920,
			"byteOffset":6888,
			"target":34962
		},
		{
			"buffer":0,
			"byteLength":1280,
			"byteOffset":8808,
			"target":34962
		},
		{
			"buffer":0,
			"byteLength":576,
			"byteOffset":10088,
			"target":34963
		},
		{
			"buffer":0,
			"byteLength":24228,
			"byteOffset":10664,
			"target":34962
		},
		{
			"buffer":0,
			"byteLength":24228,
			"byteOffset":34892,
			"target":34962
		},
		{
			"buffer":0,
			"byteLength":16152,
			"byteOffset":59120,
			"target":34962
		},
		{
			"buffer":0,
			"byteLength":6780,
			"byteOffset":75272,
			"target":34963
		},
		{
			"buffer":0,
			"byteLength":1608,
			"byteOffset":82052,
			"target":34962
		},
		{
			"buffer":0,
			"byteLength":1608,
			"byteOffset":83660,
			"target":34962
		},
		{
			"buffer":0,
			"byteLength":1072,
			"byteOffset":85268,
			"target":34962
		},
		{
			"buffer":0,
			"byteLength":456,
			"byteOffset":86340,
			"target":34963
		},
		{
			"buffer":0,
			"byteLength":15696,
			"byteOffset":86796,
			"target":34962
		},
		{
			"buffer":0,
			"byteLength":15696,
			"byteOffset":102492,
			"target":34962
		},
		{
			"buffer":0,
			"byteLength":10464,
			"byteOffset":118188,
			"target":34962
		},
		{
			"buffer":0,
			"byteLength":3960,
			"byteOffset":128652,
			"target":34963
		},
		{
			"buffer":0,
			"byteLength":15696,
			"byteOffset":132612,
			"target":34962
		},
		{
			"buffer":0,
			"byteLength":15696,
			"byteOffset":148308,
			"target":34962
		},
		{
			"buffer":0,
			"byteLength":10464,
			"byteOffset":164004,
			"target":34962
		},
		{
			"buffer":0,
			"byteLength":6432,
			"byteOffset":174468,
			"target":34963
		},
		{
			"buffer":0,
			"byteLength":2868,
			"byteOffset":180900,
			"target":34962
		},
		{
			"buffer":0,
			"byteLength":2868,
			"byteOffset":183768,
			"target":34962
		},
		{
			"buffer":0,
			"byteLength":1912,
			"byteOffset":186636,
			"target":34962
		},
		{
			"buffer":0,
			"byteLength":864,
			"byteOffset":188548,
			"target":34963
		},
		{
			"buffer":0,
			"byteLength":19548,
			"byteOffset":189412,
			"target":34962
		},
		{
			"buffer":0,
			"byteLength":19548,
			"byteOffset":208960,
			"target":34962
		},
		{
			"buffer":0,
			"byteLength":13032,
			"byteOffset":228508,
			"target":34962
		},
		{
			"buffer":0,
			"byteLength":10584,
			"byteOffset":241540,
			"target":34963
		},
		{
			"buffer":0,
			"byteLength":2760,
			"byteOffset":252124,
			"target":34962
		},
		{
			"buffer":0,
			"byteLength":2760,
			"byteOffset":254884,
			"target":34962
		},
		{
			"buffer":0,
			"byteLength":1840,
			"byteOffset":257644,
			"target":34962
		},
		{
			"buffer":0,
			"byteLength":2040,
			"byteOffset":259484,
			"target":34963
		},
		{
			"buffer":0,
			"byteLength":2472,
			"byteOffset":261524,
			"target":34962
		},
		{
			"buffer":0,
			"byteLength":2472,
			"byteOffset":263996,
			"target":34962
		},
		{
			"buffer":0,
			"byteLength":1648,
			"byteOffset":266468,
			"target":34962
		},
		{
			"buffer":0,
			"byteLength":552,
			"byteOffset":268116,
			"target":34963
		}
	],
	"buffers":[
		{
			"byteLength":268668,
			"uri":"room.bin"
		}
	]
}
