{
	"asset":{
		"generator":"Khronos glTF Blender I/O v4.0.44",
		"version":"2.0"
	},
	"scene":0,
	"scenes":[
		{
			"name":"Scene",
			"nodes":[
				0
			]
		}
	],
	"nodes":[
		{
			"mesh":0,
			"name":"body",
			"scale":[
				392.9395446777344,
				95.77900695800781,
				95.77900695800781
			],
			"translation":[
				-0.6263218522071838,
				2.5897202491760254,
				0.18866410851478577
			]
		}
	],
	"materials":[
		{
			"doubleSided":true,
			"name":"Material.003",
			"pbrMetallicRoughness":{
				"baseColorFactor":[
					0.14553654193878174,
					0.13257397711277008,
					0.8001416921615601,
					1
				],
				"metallicFactor":0,
				"roughnessFactor":0.5
			}
		}
	],
	"meshes":[
		{
			"name":"Cube.004",
			"primitives":[
				{
					"attributes":{
						"POSITION":0,
						"NORMAL":1,
						"TEXCOORD_0":2
					},
					"indices":3,
					"material":0
				}
			]
		}
	],
	"accessors":[
		{
			"bufferView":0,
			"componentType":5126,
			"count":2520,
			"max":[
				0.0038999998942017555,
				0.00649999687448144,
				0.007899999618530273
			],
			"min":[
				-0.0038999998942017555,
				-0.004800000227987766,
				-0.007899999618530273
			],
			"type":"VEC3"
		},
		{
			"bufferView":1,
			"componentType":5126,
			"count":2520,
			"type":"VEC3"
		},
		{
			"bufferView":2,
			"componentType":5126,
			"count":2520,
			"type":"VEC2"
		},
		{
			"bufferView":3,
			"componentType":5123,
			"count":6372,
			"type":"SCALAR"
		}
	],
	"bufferViews":[
		{
			"buffer":0,
			"byteLength":30240,
			"byteOffset":0,
			"target":34962
		},
		{
			"buffer":0,
			"byteLength":30240,
			"byteOffset":30240,
			"target":34962
		},
		{
			"buffer":0,
			"byteLength":20160,
			"byteOffset":60480,
			"target":34962
		},
		{
			"buffer":0,
			"byteLength":12744,
			"byteOffset":80640,
			"target":34963
		}
	],
	"buffers":[
		{
			"byteLength":93384,
			"uri":"Body.bin"
		}
	]
}
