{
	"asset":{
		"generator":"Khronos glTF Blender I/O v4.0.44",
		"version":"2.0"
	},
	"scene":0,
	"scenes":[
		{
			"name":"Scene",
			"nodes":[
				0
			]
		}
	],
	"nodes":[
		{
			"mesh":0,
			"name":"head.001",
			"scale":[
				0.5,
				1,
				1
			],
			"translation":[
				0.03336187079548836,
				0.04251166805624962,
				-3.0412093110498972e-06
			]
		}
	],
	"materials":[
		{
			"doubleSided":true,
			"name":"Material.002",
			"pbrMetallicRoughness":{
				"baseColorFactor":[
					1,
					0.6614819765090942,
					0,
					1
				],
				"metallicFactor":0,
				"roughnessFactor":0.5
			}
		}
	],
	"meshes":[
		{
			"name":"Cube.006",
			"primitives":[
				{
					"attributes":{
						"POSITION":0,
						"NORMAL":1,
						"TEXCOORD_0":2
					},
					"indices":3,
					"material":0
				}
			]
		}
	],
	"accessors":[
		{
			"bufferView":0,
			"componentType":5126,
			"count":1911,
			"max":[
				0.01600000075995922,
				0.006478496361523867,
				0.007899999618530273
			],
			"min":[
				-0.01600000075995922,
				-0.004800000227987766,
				-0.007899999618530273
			],
			"type":"VEC3"
		},
		{
			"bufferView":1,
			"componentType":5126,
			"count":1911,
			"type":"VEC3"
		},
		{
			"bufferView":2,
			"componentType":5126,
			"count":1911,
			"type":"VEC2"
		},
		{
			"bufferView":3,
			"componentType":5123,
			"count":3348,
			"type":"SCALAR"
		}
	],
	"bufferViews":[
		{
			"buffer":0,
			"byteLength":22932,
			"byteOffset":0,
			"target":34962
		},
		{
			"buffer":0,
			"byteLength":22932,
			"byteOffset":22932,
			"target":34962
		},
		{
			"buffer":0,
			"byteLength":15288,
			"byteOffset":45864,
			"target":34962
		},
		{
			"buffer":0,
			"byteLength":6696,
			"byteOffset":61152,
			"target":34963
		}
	],
	"buffers":[
		{
			"byteLength":67848,
			"uri":"head_start.bin"
		}
	]
}
