{
	"asset":{
		"generator":"Khronos glTF Blender I/O v4.0.44",
		"version":"2.0"
	},
	"scene":0,
	"scenes":[
		{
			"name":"Scene",
			"nodes":[
				0
			]
		}
	],
	"nodes":[
		{
			"mesh":0,
			"name":"Lego",
			"scale":[
				5,
				5,
				5
			],
			"translation":[
				-1.2929672002792358,
				0.02260679379105568,
				1.3783161640167236
			]
		}
	],
	"materials":[
		{
			"doubleSided":true,
			"name":"Material.004",
			"pbrMetallicRoughness":{
				"baseColorFactor":[
					1,
					0.6614819765090942,
					0,
					1
				],
				"metallicFactor":0,
				"roughnessFactor":0.5
			}
		},
		{
			"doubleSided":true,
			"name":"Material.010",
			"pbrMetallicRoughness":{
				"baseColorFactor":[
					0.14553654193878174,
					0.13257397711277008,
					0.8001416921615601,
					1
				],
				"metallicFactor":0,
				"roughnessFactor":0.5
			}
		}
	],
	"meshes":[
		{
			"name":"Cube.092",
			"primitives":[
				{
					"attributes":{
						"POSITION":0,
						"NORMAL":1,
						"TEXCOORD_0":2
					},
					"indices":3,
					"material":0
				},
				{
					"attributes":{
						"POSITION":4,
						"NORMAL":5,
						"TEXCOORD_0":6
					},
					"indices":7,
					"material":1
				}
			]
		}
	],
	"accessors":[
		{
			"bufferView":0,
			"componentType":5126,
			"count":2749,
			"max":[
				0.02538561075925827,
				0.01111839059740305,
				0.007899999618530273
			],
			"min":[
				-0.00800000037997961,
				-0.004800000227987766,
				-0.06623972952365875
			],
			"type":"VEC3"
		},
		{
			"bufferView":1,
			"componentType":5126,
			"count":2749,
			"type":"VEC3"
		},
		{
			"bufferView":2,
			"componentType":5126,
			"count":2749,
			"type":"VEC2"
		},
		{
			"bufferView":3,
			"componentType":5123,
			"count":5184,
			"type":"SCALAR"
		},
		{
			"bufferView":4,
			"componentType":5126,
			"count":2184,
			"max":[
				-0.00820779986679554,
				0.004858638159930706,
				-0.029676854610443115
			],
			"min":[
				-0.04020780324935913,
				-0.006441359408199787,
				-0.04547685384750366
			],
			"type":"VEC3"
		},
		{
			"bufferView":5,
			"componentType":5126,
			"count":2184,
			"type":"VEC3"
		},
		{
			"bufferView":6,
			"componentType":5126,
			"count":2184,
			"type":"VEC2"
		},
		{
			"bufferView":7,
			"componentType":5123,
			"count":6372,
			"type":"SCALAR"
		}
	],
	"bufferViews":[
		{
			"buffer":0,
			"byteLength":32988,
			"byteOffset":0,
			"target":34962
		},
		{
			"buffer":0,
			"byteLength":32988,
			"byteOffset":32988,
			"target":34962
		},
		{
			"buffer":0,
			"byteLength":21992,
			"byteOffset":65976,
			"target":34962
		},
		{
			"buffer":0,
			"byteLength":10368,
			"byteOffset":87968,
			"target":34963
		},
		{
			"buffer":0,
			"byteLength":26208,
			"byteOffset":98336,
			"target":34962
		},
		{
			"buffer":0,
			"byteLength":26208,
			"byteOffset":124544,
			"target":34962
		},
		{
			"buffer":0,
			"byteLength":17472,
			"byteOffset":150752,
			"target":34962
		},
		{
			"buffer":0,
			"byteLength":12744,
			"byteOffset":168224,
			"target":34963
		}
	],
	"buffers":[
		{
			"byteLength":180968,
			"uri":"lego.bin"
		}
	]
}
