{
	"asset":{
		"generator":"Khronos glTF Blender I/O v4.0.44",
		"version":"2.0"
	},
	"scene":0,
	"scenes":[
		{
			"name":"Scene",
			"nodes":[
				0
			]
		}
	],
	"nodes":[
		{
			"mesh":0,
			"name":"Puzzle",
			"rotation":[
				-0.011868917383253574,
				-0.49160268902778625,
				0.02101639099419117,
				0.8704850673675537
			],
			"scale":[
				0.052143264561891556,
				0.005083031486719847,
				0.052143264561891556
			],
			"translation":[
				0.9732863306999207,
				0.44181370735168457,
				0.6932500600814819
			]
		}
	],
	"materials":[
		{
			"doubleSided":true,
			"name":"Material.011",
			"pbrMetallicRoughness":{
				"baseColorFactor":[
					0.012805981561541557,
					0.18624593317508698,
					0.021004974842071533,
					1
				],
				"metallicFactor":0,
				"roughnessFactor":0.5
			}
		},
		{
			"doubleSided":true,
			"name":"Material.013",
			"pbrMetallicRoughness":{
				"baseColorFactor":[
					0.20670948922634125,
					0.8003311157226562,
					0.08649750053882599,
					1
				],
				"metallicFactor":0,
				"roughnessFactor":0.5
			}
		}
	],
	"meshes":[
		{
			"name":"Cube.088",
			"primitives":[
				{
					"attributes":{
						"POSITION":0,
						"NORMAL":1,
						"TEXCOORD_0":2
					},
					"indices":3,
					"material":0
				},
				{
					"attributes":{
						"POSITION":4,
						"NORMAL":5,
						"TEXCOORD_0":6
					},
					"indices":7,
					"material":1
				}
			]
		}
	],
	"accessors":[
		{
			"bufferView":0,
			"componentType":5126,
			"count":378,
			"max":[
				1.6070319414138794,
				1.0000001192092896,
				3.2086544036865234
			],
			"min":[
				-2.4840545654296875,
				-4.098603248596191,
				-3.5738015174865723
			],
			"type":"VEC3"
		},
		{
			"bufferView":1,
			"componentType":5126,
			"count":378,
			"type":"VEC3"
		},
		{
			"bufferView":2,
			"componentType":5126,
			"count":378,
			"type":"VEC2"
		},
		{
			"bufferView":3,
			"componentType":5123,
			"count":1512,
			"type":"SCALAR"
		},
		{
			"bufferView":4,
			"componentType":5126,
			"count":355,
			"max":[
				2.6202075481414795,
				1.5548994541168213,
				2.608099937438965
			],
			"min":[
				-4.355714797973633,
				-5.62789249420166,
				-2.9911646842956543
			],
			"type":"VEC3"
		},
		{
			"bufferView":5,
			"componentType":5126,
			"count":355,
			"type":"VEC3"
		},
		{
			"bufferView":6,
			"componentType":5126,
			"count":355,
			"type":"VEC2"
		},
		{
			"bufferView":7,
			"componentType":5123,
			"count":1464,
			"type":"SCALAR"
		}
	],
	"bufferViews":[
		{
			"buffer":0,
			"byteLength":4536,
			"byteOffset":0,
			"target":34962
		},
		{
			"buffer":0,
			"byteLength":4536,
			"byteOffset":4536,
			"target":34962
		},
		{
			"buffer":0,
			"byteLength":3024,
			"byteOffset":9072,
			"target":34962
		},
		{
			"buffer":0,
			"byteLength":3024,
			"byteOffset":12096,
			"target":34963
		},
		{
			"buffer":0,
			"byteLength":4260,
			"byteOffset":15120,
			"target":34962
		},
		{
			"buffer":0,
			"byteLength":4260,
			"byteOffset":19380,
			"target":34962
		},
		{
			"buffer":0,
			"byteLength":2840,
			"byteOffset":23640,
			"target":34962
		},
		{
			"buffer":0,
			"byteLength":2928,
			"byteOffset":26480,
			"target":34963
		}
	],
	"buffers":[
		{
			"byteLength":29408,
			"uri":"puzzle.bin"
		}
	]
}
