{
	"asset":{
		"generator":"Khronos glTF Blender I/O v4.0.44",
		"version":"2.0"
	},
	"scene":0,
	"scenes":[
		{
			"name":"Scene",
			"nodes":[
				0
			]
		}
	],
	"nodes":[
		{
			"mesh":0,
			"name":"head",
			"scale":[
				47.889503479003906,
				95.77900695800781,
				95.77900695800781
			],
			"translation":[
				0.9313328862190247,
				5.348670482635498,
				0.18837295472621918
			]
		}
	],
	"materials":[
		{
			"doubleSided":true,
			"name":"Material.004",
			"pbrMetallicRoughness":{
				"baseColorFactor":[
					1,
					0.6614819765090942,
					0,
					1
				],
				"metallicFactor":0,
				"roughnessFactor":0.5
			}
		}
	],
	"meshes":[
		{
			"name":"Cube.005",
			"primitives":[
				{
					"attributes":{
						"POSITION":0,
						"NORMAL":1,
						"TEXCOORD_0":2
					},
					"indices":3,
					"material":0
				}
			]
		}
	],
	"accessors":[
		{
			"bufferView":0,
			"componentType":5126,
			"count":1955,
			"max":[
				0.01600000075995922,
				0.006478496361523867,
				0.007899999618530273
			],
			"min":[
				-0.01600000075995922,
				-0.004800000227987766,
				-0.007899999618530273
			],
			"type":"VEC3"
		},
		{
			"bufferView":1,
			"componentType":5126,
			"count":1955,
			"type":"VEC3"
		},
		{
			"bufferView":2,
			"componentType":5126,
			"count":1955,
			"type":"VEC2"
		},
		{
			"bufferView":3,
			"componentType":5123,
			"count":3348,
			"type":"SCALAR"
		}
	],
	"bufferViews":[
		{
			"buffer":0,
			"byteLength":23460,
			"byteOffset":0,
			"target":34962
		},
		{
			"buffer":0,
			"byteLength":23460,
			"byteOffset":23460,
			"target":34962
		},
		{
			"buffer":0,
			"byteLength":15640,
			"byteOffset":46920,
			"target":34962
		},
		{
			"buffer":0,
			"byteLength":6696,
			"byteOffset":62560,
			"target":34963
		}
	],
	"buffers":[
		{
			"byteLength":69256,
			"uri":"head.bin"
		}
	]
}
